<svg xmlns="http://www.w3.org/2000/svg" xmlns:svg="http://www.w3.org/2000/svg" id="svg2" width="62.5" height="62.5" version="1.1" viewBox="0 0 60.819 60.819"><title id="title3033">Etherpad</title><metadata id="metadata9"/><path id="path01" d="m 45.953277,48.842636 -13.76749,-9.370078 -18.010202,8.570208 m 5.236235,-10.276004 10.613265,6.343524 10.755253,-5.749067 m -16.132879,-10.293644 5.377626,3.10269 5.443554,-3.348981 M 29.747573,15.946027 32.233411,39.472556 M 29.838272,16.44373 13.688126,48.16853 29.508012,57.45699 29.820402,10.225937 29.772772,16.34803 45.95327,48.842636 29.508003,57.269219 M 21.553773,9.1091165 C 22.743554,-0.86550773 35.946656,-2.7841873 38.218887,8.8403001" style="fill:none;stroke:#123f0f;stroke-width:1.82456446;stroke-linecap:round;stroke-linejoin:round;stroke-miterlimit:4;stroke-opacity:1;stroke-dasharray:none"/><path id="path3756" d="m 7.5244331,10.032578 a 0.34835339,0.37477049 0 1 1 -0.6967067,0 0.34835339,0.37477049 0 1 1 0.6967067,0 z" transform="matrix(3.1221913,0,0,2.972881,7.3844024,-20.305626)" style="fill:#b3b3b3;fill-opacity:1;stroke:#123f0f;stroke-width:.79850829;stroke-linecap:round;stroke-linejoin:round;stroke-miterlimit:4;stroke-opacity:1;stroke-dasharray:none"/></svg>